<?xml version="1.0" standalone="yes"?><svg xmlns="http://www.w3.org/2000/svg" version="1.1" width="222" height="222" viewBox="0 0 222 222" shape-rendering="crispEdges"><rect x="0" y="0" width="222" height="222" fill="#ffffff"/><path fill="#000000" d="M24 24h6v6H24V24M30 24h6v6H30V24M36 24h6v6H36V24M42 24h6v6H42V24M48 24h6v6H48V24M54 24h6v6H54V24M60 24h6v6H60V24M72 24h6v6H72V24M78 24h6v6H78V24M84 24h6v6H84V24M102 24h6v6H102V24M108 24h6v6H108V24M114 24h6v6H114V24M132 24h6v6H132V24M144 24h6v6H144V24M156 24h6v6H156V24M162 24h6v6H162V24M168 24h6v6H168V24M174 24h6v6H174V24M180 24h6v6H180V24M186 24h6v6H186V24M192 24h6v6H192V24M24 30h6v6H24V30M60 30h6v6H60V30M72 30h6v6H72V30M84 30h6v6H84V30M102 30h6v6H102V30M108 30h6v6H108V30M114 30h6v6H114V30M126 30h6v6H126V30M138 30h6v6H138V30M144 30h6v6H144V30M156 30h6v6H156V30M192 30h6v6H192V30M24 36h6v6H24V36M36 36h6v6H36V36M42 36h6v6H42V36M48 36h6v6H48V36M60 36h6v6H60V36M72 36h6v6H72V36M78 36h6v6H78V36M84 36h6v6H84V36M90 36h6v6H90V36M96 36h6v6H96V36M102 36h6v6H102V36M108 36h6v6H108V36M132 36h6v6H132V36M156 36h6v6H156V36M168 36h6v6H168V36M174 36h6v6H174V36M180 36h6v6H180V36M192 36h6v6H192V36M24 42h6v6H24V42M36 42h6v6H36V42M42 42h6v6H42V42M48 42h6v6H48V42M60 42h6v6H60V42M78 42h6v6H78V42M108 42h6v6H108V42M114 42h6v6H114V42M120 42h6v6H120V42M126 42h6v6H126V42M144 42h6v6H144V42M156 42h6v6H156V42M168 42h6v6H168V42M174 42h6v6H174V42M180 42h6v6H180V42M192 42h6v6H192V42M24 48h6v6H24V48M36 48h6v6H36V48M42 48h6v6H42V48M48 48h6v6H48V48M60 48h6v6H60V48M72 48h6v6H72V48M78 48h6v6H78V48M102 48h6v6H102V48M114 48h6v6H114V48M132 48h6v6H132V48M138 48h6v6H138V48M156 48h6v6H156V48M168 48h6v6H168V48M174 48h6v6H174V48M180 48h6v6H180V48M192 48h6v6H192V48M24 54h6v6H24V54M60 54h6v6H60V54M78 54h6v6H78V54M84 54h6v6H84V54M96 54h6v6H96V54M102 54h6v6H102V54M108 54h6v6H108V54M126 54h6v6H126V54M132 54h6v6H132V54M144 54h6v6H144V54M156 54h6v6H156V54M192 54h6v6H192V54M24 60h6v6H24V60M30 60h6v6H30V60M36 60h6v6H36V60M42 60h6v6H42V60M48 60h6v6H48V60M54 60h6v6H54V60M60 60h6v6H60V60M72 60h6v6H72V60M84 60h6v6H84V60M96 60h6v6H96V60M108 60h6v6H108V60M120 60h6v6H120V60M132 60h6v6H132V60M144 60h6v6H144V60M156 60h6v6H156V60M162 60h6v6H162V60M168 60h6v6H168V60M174 60h6v6H174V60M180 60h6v6H180V60M186 60h6v6H186V60M192 60h6v6H192V60M78 66h6v6H78V66M108 66h6v6H108V66M120 66h6v6H120V66M138 66h6v6H138V66M24 72h6v6H24V72M42 72h6v6H42V72M48 72h6v6H48V72M54 72h6v6H54V72M60 72h6v6H60V72M66 72h6v6H66V72M72 72h6v6H72V72M78 72h6v6H78V72M84 72h6v6H84V72M96 72h6v6H96V72M102 72h6v6H102V72M108 72h6v6H108V72M114 72h6v6H114V72M120 72h6v6H120V72M126 72h6v6H126V72M138 72h6v6H138V72M144 72h6v6H144V72M150 72h6v6H150V72M168 72h6v6H168V72M180 72h6v6H180V72M186 72h6v6H186V72M192 72h6v6H192V72M24 78h6v6H24V78M54 78h6v6H54V78M84 78h6v6H84V78M90 78h6v6H90V78M96 78h6v6H96V78M108 78h6v6H108V78M114 78h6v6H114V78M126 78h6v6H126V78M132 78h6v6H132V78M138 78h6v6H138V78M150 78h6v6H150V78M162 78h6v6H162V78M168 78h6v6H168V78M180 78h6v6H180V78M186 78h6v6H186V78M42 84h6v6H42V84M54 84h6v6H54V84M60 84h6v6H60V84M66 84h6v6H66V84M72 84h6v6H72V84M78 84h6v6H78V84M90 84h6v6H90V84M96 84h6v6H96V84M108 84h6v6H108V84M114 84h6v6H114V84M144 84h6v6H144V84M150 84h6v6H150V84M180 84h6v6H180V84M30 90h6v6H30V90M36 90h6v6H36V90M42 90h6v6H42V90M48 90h6v6H48V90M54 90h6v6H54V90M66 90h6v6H66V90M84 90h6v6H84V90M90 90h6v6H90V90M96 90h6v6H96V90M108 90h6v6H108V90M120 90h6v6H120V90M126 90h6v6H126V90M162 90h6v6H162V90M174 90h6v6H174V90M192 90h6v6H192V90M24 96h6v6H24V96M36 96h6v6H36V96M54 96h6v6H54V96M60 96h6v6H60V96M84 96h6v6H84V96M102 96h6v6H102V96M108 96h6v6H108V96M114 96h6v6H114V96M132 96h6v6H132V96M144 96h6v6H144V96M156 96h6v6H156V96M162 96h6v6H162V96M192 96h6v6H192V96M24 102h6v6H24V102M48 102h6v6H48V102M54 102h6v6H54V102M66 102h6v6H66V102M72 102h6v6H72V102M78 102h6v6H78V102M90 102h6v6H90V102M114 102h6v6H114V102M120 102h6v6H120V102M126 102h6v6H126V102M132 102h6v6H132V102M156 102h6v6H156V102M162 102h6v6H162V102M168 102h6v6H168V102M174 102h6v6H174V102M180 102h6v6H180V102M186 102h6v6H186V102M192 102h6v6H192V102M30 108h6v6H30V108M36 108h6v6H36V108M42 108h6v6H42V108M48 108h6v6H48V108M54 108h6v6H54V108M60 108h6v6H60V108M66 108h6v6H66V108M78 108h6v6H78V108M96 108h6v6H96V108M108 108h6v6H108V108M114 108h6v6H114V108M126 108h6v6H126V108M138 108h6v6H138V108M150 108h6v6H150V108M156 108h6v6H156V108M180 108h6v6H180V108M192 108h6v6H192V108M24 114h6v6H24V114M30 114h6v6H30V114M36 114h6v6H36V114M42 114h6v6H42V114M84 114h6v6H84V114M90 114h6v6H90V114M102 114h6v6H102V114M108 114h6v6H108V114M120 114h6v6H120V114M150 114h6v6H150V114M156 114h6v6H156V114M168 114h6v6H168V114M180 114h6v6H180V114M192 114h6v6H192V114M24 120h6v6H24V120M36 120h6v6H36V120M48 120h6v6H48V120M54 120h6v6H54V120M60 120h6v6H60V120M66 120h6v6H66V120M72 120h6v6H72V120M78 120h6v6H78V120M84 120h6v6H84V120M90 120h6v6H90V120M96 120h6v6H96V120M114 120h6v6H114V120M174 120h6v6H174V120M24 126h6v6H24V126M36 126h6v6H36V126M114 126h6v6H114V126M132 126h6v6H132V126M138 126h6v6H138V126M144 126h6v6H144V126M168 126h6v6H168V126M180 126h6v6H180V126M186 126h6v6H186V126M24 132h6v6H24V132M30 132h6v6H30V132M54 132h6v6H54V132M60 132h6v6H60V132M84 132h6v6H84V132M102 132h6v6H102V132M108 132h6v6H108V132M114 132h6v6H114V132M126 132h6v6H126V132M138 132h6v6H138V132M150 132h6v6H150V132M162 132h6v6H162V132M168 132h6v6H168V132M174 132h6v6H174V132M192 132h6v6H192V132M24 138h6v6H24V138M30 138h6v6H30V138M66 138h6v6H66V138M78 138h6v6H78V138M84 138h6v6H84V138M102 138h6v6H102V138M114 138h6v6H114V138M132 138h6v6H132V138M138 138h6v6H138V138M144 138h6v6H144V138M150 138h6v6H150V138M156 138h6v6H156V138M174 138h6v6H174V138M180 138h6v6H180V138M24 144h6v6H24V144M30 144h6v6H30V144M60 144h6v6H60V144M66 144h6v6H66V144M84 144h6v6H84V144M96 144h6v6H96V144M102 144h6v6H102V144M114 144h6v6H114V144M120 144h6v6H120V144M126 144h6v6H126V144M144 144h6v6H144V144M150 144h6v6H150V144M156 144h6v6H156V144M162 144h6v6H162V144M168 144h6v6H168V144M174 144h6v6H174V144M180 144h6v6H180V144M186 144h6v6H186V144M72 150h6v6H72V150M90 150h6v6H90V150M102 150h6v6H102V150M114 150h6v6H114V150M132 150h6v6H132V150M144 150h6v6H144V150M168 150h6v6H168V150M174 150h6v6H174V150M24 156h6v6H24V156M30 156h6v6H30V156M36 156h6v6H36V156M42 156h6v6H42V156M48 156h6v6H48V156M54 156h6v6H54V156M60 156h6v6H60V156M72 156h6v6H72V156M84 156h6v6H84V156M102 156h6v6H102V156M114 156h6v6H114V156M120 156h6v6H120V156M126 156h6v6H126V156M132 156h6v6H132V156M138 156h6v6H138V156M144 156h6v6H144V156M156 156h6v6H156V156M168 156h6v6H168V156M174 156h6v6H174V156M24 162h6v6H24V162M60 162h6v6H60V162M72 162h6v6H72V162M78 162h6v6H78V162M84 162h6v6H84V162M90 162h6v6H90V162M96 162h6v6H96V162M102 162h6v6H102V162M114 162h6v6H114V162M120 162h6v6H120V162M126 162h6v6H126V162M138 162h6v6H138V162M144 162h6v6H144V162M168 162h6v6H168V162M186 162h6v6H186V162M24 168h6v6H24V168M36 168h6v6H36V168M42 168h6v6H42V168M48 168h6v6H48V168M60 168h6v6H60V168M72 168h6v6H72V168M84 168h6v6H84V168M90 168h6v6H90V168M102 168h6v6H102V168M114 168h6v6H114V168M138 168h6v6H138V168M144 168h6v6H144V168M150 168h6v6H150V168M156 168h6v6H156V168M162 168h6v6H162V168M168 168h6v6H168V168M174 168h6v6H174V168M186 168h6v6H186V168M192 168h6v6H192V168M24 174h6v6H24V174M36 174h6v6H36V174M42 174h6v6H42V174M48 174h6v6H48V174M60 174h6v6H60V174M72 174h6v6H72V174M78 174h6v6H78V174M84 174h6v6H84V174M108 174h6v6H108V174M114 174h6v6H114V174M120 174h6v6H120V174M126 174h6v6H126V174M132 174h6v6H132V174M192 174h6v6H192V174M24 180h6v6H24V180M36 180h6v6H36V180M42 180h6v6H42V180M48 180h6v6H48V180M60 180h6v6H60V180M102 180h6v6H102V180M108 180h6v6H108V180M114 180h6v6H114V180M120 180h6v6H120V180M126 180h6v6H126V180M150 180h6v6H150V180M162 180h6v6H162V180M168 180h6v6H168V180M180 180h6v6H180V180M186 180h6v6H186V180M192 180h6v6H192V180M24 186h6v6H24V186M60 186h6v6H60V186M102 186h6v6H102V186M108 186h6v6H108V186M132 186h6v6H132V186M150 186h6v6H150V186M162 186h6v6H162V186M168 186h6v6H168V186M174 186h6v6H174V186M180 186h6v6H180V186M192 186h6v6H192V186M24 192h6v6H24V192M30 192h6v6H30V192M36 192h6v6H36V192M42 192h6v6H42V192M48 192h6v6H48V192M54 192h6v6H54V192M60 192h6v6H60V192M72 192h6v6H72V192M84 192h6v6H84V192M96 192h6v6H96V192M102 192h6v6H102V192M108 192h6v6H108V192M114 192h6v6H114V192M138 192h6v6H138V192M144 192h6v6H144V192M150 192h6v6H150V192M156 192h6v6H156V192M162 192h6v6H162V192M168 192h6v6H168V192"/></svg>